<?xml version="1.0" encoding="UTF-8" standalone="no"?>
<svg
   xmlns:dc="http://purl.org/dc/elements/1.1/"
   xmlns:cc="http://creativecommons.org/ns#"
   xmlns:rdf="http://www.w3.org/1999/02/22-rdf-syntax-ns#"
   xmlns:svg="http://www.w3.org/2000/svg"
   xmlns="http://www.w3.org/2000/svg"
   xmlns:sodipodi="http://sodipodi.sourceforge.net/DTD/sodipodi-0.dtd"
   xmlns:inkscape="http://www.inkscape.org/namespaces/inkscape"
   inkscape:version="1.0beta1 (32d4812, 2019-09-19)"
   sodipodi:docname="uiv_joined.svg"
   id="svg302"
   version="1.1"
   viewBox="0 0 637.50954 167.01493"
   height="58.924526mm"
   width="224.89656mm">
  <metadata
     id="metadata306">
    <rdf:RDF>
      <cc:Work
         rdf:about="">
        <dc:format>image/svg+xml</dc:format>
        <dc:type
           rdf:resource="http://purl.org/dc/dcmitype/StillImage" />
        <dc:title>uiv_logo_mText</dc:title>
      </cc:Work>
    </rdf:RDF>
  </metadata>
  <sodipodi:namedview
     inkscape:current-layer="svg302"
     inkscape:window-maximized="0"
     inkscape:window-y="0"
     inkscape:window-x="0"
     inkscape:cy="174.43828"
     inkscape:cx="523.3918"
     inkscape:zoom="0.96102398"
     showgrid="false"
     id="namedview304"
     inkscape:window-height="900"
     inkscape:window-width="1440"
     inkscape:pageshadow="2"
     inkscape:pageopacity="0"
     guidetolerance="10"
     gridtolerance="10"
     objecttolerance="10"
     borderopacity="1"
     inkscape:document-rotation="0"
     bordercolor="#666666"
     pagecolor="#ffffff" />
  <defs
     id="defs224">
    <style
       id="style222">.a{fill:#4c4a50;}.b{fill:#e30613;}.c{fill:#647a84;}</style>
  </defs>
  <title
     id="title226">uiv_logo_mText</title>
  <g
     transform="translate(237.2852,-0.92925698)"
     id="g830">
    <path
       style="opacity:1;stop-opacity:1"
       inkscape:connector-curvature="0"
       class="b"
       d="m 163.22,82.917235 v -48 h -35.38 l -13.62,56.29 c -2.27,9.289995 -5.31,15.919995 -8.91,19.519995 -3.6,3.6 -10.23,5.5 -19.9,5.5 -9.67,0 -16.3,-1.71 -19.9,-5.31 -3.6,-3.6 -6.63,-10.23 -8.91,-19.709995 l -12.89,-53.23 c -29.71,6.15 -43.71,22.25 -43.71,51.94 0,40.999995 29.4,53.379995 75.81,53.379995 58,0 87.41,-11.6 87.41,-60.339995 z m -55.07,-48 h -30 c -5.43,0 -10.49,0.21 -15.33,0.53 l 13.12,54.81 c 1.7,7.389997 4.17,9.099997 9.47,9.099997 5.5,0 7.77,-1.52 9.48,-9.099997 l 13.26,-55.27 z"
       id="path272" />
    <path
       style="opacity:1;stop-opacity:1"
       inkscape:connector-curvature="0"
       class="b"
       d="m 121.28,22.917235 a 11,11 0 1 0 -11,-11 11,11 0 0 0 11,11 z"
       id="path274" />
  </g>
  <g
     transform="translate(-180.00209,0.25286002)"
     id="g826">
    <path
       style="opacity:1;stop-opacity:1"
       inkscape:connector-curvature="0"
       class="a"
       d="m 185.3,118.85723 c -0.39,-1.72 -0.94,-2.17 -2.71,-2.17 h -0.74 c -1.77,0 -2.12,0.45 -1.67,2.17 l 3.94,16.26 a 11.06,11.06 0 0 0 2.32,5.12 c 0.94,0.94 2.66,1.38 5.18,1.38 2.52,0 4.24,-0.49 5.17,-1.43 a 11.08,11.08 0 0 0 2.32,-5.08 l 3.89,-16.25 c 0.44,-1.72 0.1,-2.17 -1.68,-2.17 h -0.74 c -1.77,0 -2.32,0.45 -2.71,2.17 l -3.84,16 c -0.44,2 -1,2.37 -2.46,2.37 -1.46,0 -2,-0.44 -2.46,-2.37 l -3.84,-16"
       id="path228" />
    <path
       style="opacity:1;stop-opacity:1"
       inkscape:connector-curvature="0"
       class="a"
       d="m 208.33,138.91723 c 0,1.77 0.44,2.22 2.22,2.22 h 0.64 c 1.77,0 2.22,-0.44 2.22,-2.22 v -20 c 0,-1.77 -0.44,-2.22 -2.22,-2.22 h -0.64 c -1.77,0 -2.22,0.45 -2.22,2.22 z"
       id="path230" />
    <path
       style="opacity:1;stop-opacity:1"
       inkscape:connector-curvature="0"
       class="a"
       d="m 240.88,126.34723 c 0,-6.7 -3.6,-10.2 -10.45,-10.2 -7.29,0 -10.94,3.55 -10.94,10.69 v 4.29 c 0,7.44 3.84,10.55 12.12,10.55 a 24,24 0 0 0 6.39,-0.76 c 1.73,-0.44 2,-0.79 2,-2.41 v -0.64 c 0,-1.72 -0.44,-2.12 -2,-1.72 a 27.45,27.45 0 0 1 -6.41,0.79 c -5,0 -7,-1.43 -7,-5 v -1.08 h 13.7 c 1.82,0 2.32,-0.44 2.51,-2.27 0.05,-0.74 0.1,-1.43 0.1,-2.17 z m -4.78,0.29 h -11.54 v -1.22 c 0,-3.25 1.92,-4.88 5.72,-4.88 3.8,0 5.82,1.63 5.82,4.88 v 1.23 z"
       id="path232" />
    <path
       style="opacity:1;stop-opacity:1"
       inkscape:connector-curvature="0"
       class="a"
       d="m 250.78,125.70723 c 0,-3.35 1.28,-4.83 5.67,-4.83 4.39,0 5.62,1.48 5.62,4.83 v 13.21 c 0,1.77 0.44,2.22 2.22,2.22 h 0.64 c 1.77,0 2.22,-0.44 2.22,-2.22 v -13.21 c 0,-6.36 -3.2,-9.56 -10.69,-9.56 -7.15,0 -10.74,3.2 -10.74,9.56 v 13.21 c 0,1.77 0.44,2.22 2.22,2.22 h 0.64 c 1.77,0 2.22,-0.44 2.22,-2.22 v -13.21 z"
       id="path234" />
    <path
       style="opacity:1;stop-opacity:1"
       inkscape:connector-curvature="0"
       class="a"
       d="m 277.54,125.70723 c 0,-3.35 1.28,-4.83 5.67,-4.83 4.39,0 5.62,1.48 5.62,4.83 v 13.21 c 0,1.77 0.44,2.22 2.22,2.22 h 0.64 c 1.77,0 2.22,-0.44 2.22,-2.22 v -13.21 c 0,-6.36 -3.2,-9.56 -10.69,-9.56 -7.15,0 -10.74,3.2 -10.74,9.56 v 13.21 c 0,1.77 0.44,2.22 2.22,2.22 h 0.64 c 1.77,0 2.22,-0.44 2.22,-2.22 v -13.21 z"
       id="path236" />
    <path
       style="opacity:1;stop-opacity:1"
       inkscape:connector-curvature="0"
       class="a"
       d="m 318.3,133.78723 v -9.56 c 0,-5.87 -4,-8.08 -11.14,-8.08 a 31,31 0 0 0 -4.93,0.39 c -1.38,0.25 -1.77,0.69 -1.77,2.12 v 0.69 c 0,1.53 0.39,1.82 1.82,1.58 a 26.7,26.7 0 0 1 5.17,-0.44 c 3.89,0 5.81,0.84 5.81,3.75 v 2.41 h -5.42 c -6.5,0 -10.05,2.17 -10.05,7.44 0,5.08 3.35,7.59 10,7.59 7.29,0 10.5,-2.42 10.5,-7.89 z m -5,-0.25 c 0,3.11 -1.87,3.85 -5.57,3.85 -3,0 -4.83,-0.79 -4.83,-3.4 0,-2.61 1.58,-3.5 5,-3.5 h 5.42 v 3.05 z"
       id="path238" />
    <path
       style="opacity:1;stop-opacity:1"
       inkscape:connector-curvature="0"
       class="b"
       d="m 377.53,90.197235 v -4.28 c 0,-7.1 -3.4,-10.64 -11.24,-10.64 -7.63,0.04 -11.29,3.79 -11.29,10.64 v 4.24 c 0,7.099997 3.45,10.639995 11.33,10.639995 7.54,0 11.24,-3.789998 11.24,-10.639995 z m -5.08,0 c 0,4.139997 -1.38,5.869997 -6.16,5.869997 -4.78,0 -6.29,-1.78 -6.29,-5.869997 v -4.28 c 0,-4.14 1.48,-5.91 6.26,-5.91 4.78,0 6.16,1.77 6.16,5.91 v 4.24 z"
       id="path240" />
    <path
       style="opacity:1;stop-opacity:1"
       inkscape:connector-curvature="0"
       class="b"
       d="m 267.84,90.197235 v -4.28 c 0,-7.1 -3.4,-10.64 -11.24,-10.64 -7.64,0 -11.33,3.75 -11.33,10.64 v 4.24 c 0,7.099997 3.45,10.639995 11.33,10.639995 7.54,0 11.24,-3.789998 11.24,-10.639995 z m -5.08,0 c 0,4.139997 -1.38,5.869997 -6.16,5.869997 -4.78,0 -6.26,-1.78 -6.26,-5.869997 v -4.28 c 0,-4.14 1.48,-5.91 6.26,-5.91 4.78,0 6.16,1.77 6.16,5.91 v 4.24 z"
       id="path242" />
    <path
       style="opacity:1;stop-opacity:1"
       inkscape:connector-curvature="0"
       class="b"
       d="m 181.3,98.087232 c 0,1.78 0.44,2.219998 2.22,2.219998 h 0.64 c 1.77,0 2.22,-0.439998 2.22,-2.219998 V 78.087235 c 0,-1.77 -0.44,-2.22 -2.22,-2.22 h -0.64 c -1.77,0 -2.22,0.44 -2.22,2.22 v 19.999997"
       id="path244" />
    <path
       style="opacity:1;stop-opacity:1"
       inkscape:connector-curvature="0"
       class="b"
       d="m 197.32,84.917235 c 0,-3.35 1.28,-4.83 5.67,-4.83 4.39,0 5.62,1.48 5.62,4.83 v 13.169997 c 0,1.78 0.44,2.219998 2.22,2.219998 h 0.64 c 1.77,0 2.22,-0.439998 2.22,-2.219998 V 84.917235 c 0,-6.36 -3.2,-9.56 -10.69,-9.56 -7.15,0 -10.74,3.2 -10.74,9.56 v 13.169997 c 0,1.78 0.44,2.219998 2.22,2.219998 h 0.64 c 1.77,0 2.22,-0.439998 2.22,-2.219998 V 84.917235 Z"
       id="path246" />
    <path
       style="opacity:1;stop-opacity:1"
       inkscape:connector-curvature="0"
       class="b"
       d="m 224.08,84.917235 c 0,-3.35 1.28,-4.83 5.67,-4.83 4.39,0 5.62,1.48 5.62,4.83 v 13.169997 c 0,1.78 0.44,2.219998 2.22,2.219998 h 0.64 c 1.77,0 2.22,-0.439998 2.22,-2.219998 V 84.917235 c 0,-6.36 -3.2,-9.56 -10.69,-9.56 -7.16,-0.04 -10.76,3.16 -10.76,9.56 v 13.169997 c 0,1.78 0.44,2.219998 2.22,2.219998 h 0.64 c 1.77,0 2.22,-0.439998 2.22,-2.219998 z"
       id="path248" />
    <path
       style="opacity:1;stop-opacity:1"
       inkscape:connector-curvature="0"
       class="b"
       d="m 277.2,78.027235 c -0.39,-1.72 -0.94,-2.17 -2.71,-2.17 h -0.74 c -1.77,0 -2.12,0.44 -1.67,2.17 L 276,94.287232 a 11,11 0 0 0 2.32,5.13 c 0.94,0.939998 2.66,1.379998 5.17,1.379998 2.51,0 4.24,-0.49 5.17,-1.429998 a 11,11 0 0 0 2.34,-5.08 l 3.94,-16.259997 c 0.44,-1.72 0.1,-2.17 -1.68,-2.17 h -0.74 c -1.77,0 -2.32,0.44 -2.71,2.17 l -3.84,15.999997 c -0.44,2 -1,2.37 -2.46,2.37 -1.46,0 -2,-0.44 -2.46,-2.37 l -3.84,-15.999997 z"
       id="path250" />
    <path
       style="opacity:1;stop-opacity:1"
       inkscape:connector-curvature="0"
       class="b"
       d="m 318.3,92.917232 v -9.519997 c 0,-5.86 -4,-8.08 -11.14,-8.08 a 30.77,30.77 0 0 0 -4.93,0.39 c -1.38,0.25 -1.77,0.69 -1.77,2.12 v 0.69 c 0,1.53 0.39,1.82 1.82,1.58 a 26.72,26.72 0 0 1 5.18,-0.44 c 3.89,0 5.81,0.84 5.81,3.75 v 2.41 h -5.42 c -6.5,0 -10.05,2.17 -10.05,7.439997 0,5.08 3.35,7.589998 10,7.589998 7.29,0 10.5,-2.409998 10.5,-7.879998 z m -5,-0.25 c 0,3.11 -1.87,3.84 -5.57,3.84 -3,0 -4.83,-0.79 -4.83,-3.4 0,-2.609997 1.58,-3.499997 5,-3.499997 h 5.42 v 3.109997 z"
       id="path252" />
    <path
       style="opacity:1;stop-opacity:1"
       inkscape:connector-curvature="0"
       class="b"
       d="m 321.16,78.867235 c 0,1.38 0.34,1.73 1.72,1.73 h 2.56 v 11.129997 c 0,6.06 3,9.069998 8.87,9.069998 a 22,22 0 0 0 4,-0.39 c 1.63,-0.34 2,-0.839998 2,-2.459998 v -0.59 c 0,-1.72 -0.39,-2.07 -2,-1.72 a 16.53,16.53 0 0 1 -4,0.44 q -3.84,0 -3.84,-4.29 V 80.587235 h 6.9 c 1.63,0 2.07,-0.35 2.07,-2.07 v -0.6 c 0,-1.73 -0.44,-2.07 -2.07,-2.07 h -6.9 v -4.62 c 0,-1.43 -0.34,-1.77 -1.77,-1.77 h -0.64 c -1.43,0 -1.82,0.35 -2,1.77 l -0.59,4.63 -2.61,0.49 c -1.33,0.25 -1.68,0.64 -1.68,2 v 0.49 z"
       id="path254" />
    <path
       style="opacity:1;stop-opacity:1"
       inkscape:connector-curvature="0"
       class="b"
       d="m 344.51,98.087232 c 0,1.78 0.44,2.219998 2.22,2.219998 h 0.64 c 1.77,0 2.22,-0.439998 2.22,-2.219998 V 78.087235 c 0,-1.77 -0.44,-2.22 -2.22,-2.22 h -0.64 c -1.77,0 -2.22,0.44 -2.22,2.22 z"
       id="path256" />
    <path
       style="opacity:1;stop-opacity:1"
       inkscape:connector-curvature="0"
       class="b"
       d="m 387.44,84.917235 c 0,-3.35 1.28,-4.83 5.67,-4.83 4.39,0 5.62,1.48 5.62,4.83 v 13.169997 c 0,1.78 0.44,2.219998 2.22,2.219998 h 0.64 c 1.77,0 2.22,-0.439998 2.22,-2.219998 V 84.917235 c 0,-6.36 -3.2,-9.56 -10.69,-9.56 -7.14,0 -10.74,3.2 -10.74,9.56 v 13.169997 c 0,1.78 0.44,2.219998 2.22,2.219998 h 0.64 c 1.77,0 2.22,-0.439998 2.22,-2.219998 V 84.917235 Z"
       id="path258" />
    <path
       style="opacity:1;stop-opacity:1"
       inkscape:connector-curvature="0"
       class="b"
       d="m 186.34,37.247235 c 0,-1.77 -0.44,-2.22 -2.22,-2.22 h -0.64 c -1.77,0 -2.22,0.44 -2.22,2.22 v 13.16 c 0,6.41 3.6,9.61 10.74,9.61 7.49,0 10.69,-3.25 10.69,-9.61 v -13.16 c 0,-1.77 -0.44,-2.22 -2.22,-2.22 h -0.64 c -1.77,0 -2.22,0.44 -2.22,2.22 v 13.16 c 0,3.35 -1.23,4.83 -5.62,4.83 -4.39,0 -5.67,-1.48 -5.67,-4.83 v -13.16"
       id="path260" />
    <path
       style="opacity:1;stop-opacity:1"
       inkscape:connector-curvature="0"
       class="b"
       d="m 213,43.557235 c 0,-3 0.94,-4.34 4.24,-4.34 a 5.69,5.69 0 0 1 1,0 c 1.72,0.25 2.07,-0.1 2.07,-1.72 v -0.69 c 0,-1.73 -0.44,-2.12 -2.07,-2.32 a 5.73,5.73 0 0 0 -1,0 q -9.31,0 -9.31,8.72 v 14 c 0,1.77 0.44,2.22 2.22,2.22 h 0.64 c 1.78,0 2.22,-0.44 2.22,-2.22 v -13.65 z"
       id="path262" />
    <path
       style="opacity:1;stop-opacity:1"
       inkscape:connector-curvature="0"
       class="b"
       d="m 246.51,49.467235 v -4.24 c 0,-7.15 -3.4,-10.74 -10.25,-10.74 -3.5,0 -5.91,1.08 -7.24,3.2 v -10.49 c 0,-1.77 -0.44,-2.22 -2.22,-2.22 h -0.59 c -1.77,0 -2.22,0.44 -2.22,2.22 v 22.27 c 0,7 4.19,10.55 11.24,10.55 7.54,0 11.29,-3.4 11.29,-10.55 z m -5.08,-0.1 c 0,4.14 -1.28,5.86 -6.16,5.86 -4.88,0 -6.27,-1.77 -6.27,-5.86 v -4.24 c 0,-4.14 1.48,-5.91 6.26,-5.91 4.78,0 6.16,1.77 6.16,5.91 v 4.24 z"
       id="path264" />
    <path
       style="opacity:1;stop-opacity:1"
       inkscape:connector-curvature="0"
       class="b"
       d="m 270.66,52.127235 v -9.56 c 0,-5.86 -4,-8.08 -11.14,-8.08 a 30.77,30.77 0 0 0 -4.93,0.39 c -1.38,0.25 -1.77,0.69 -1.77,2.12 v 0.69 c 0,1.53 0.39,1.82 1.82,1.58 a 26.68,26.68 0 0 1 5.17,-0.44 c 3.89,0 5.82,0.84 5.82,3.75 v 2.41 h -5.42 c -6.5,0 -10.05,2.17 -10.05,7.44 0,5.08 3.35,7.59 10,7.59 7.29,0 10.5,-2.41 10.5,-7.88 z m -5,-0.25 c 0,3.1 -1.87,3.84 -5.57,3.84 -3,0 -4.83,-0.79 -4.83,-3.4 0,-2.61 1.58,-3.5 5,-3.5 h 5.42 v 3.1 z"
       id="path266" />
    <path
       style="opacity:1;stop-opacity:1"
       inkscape:connector-curvature="0"
       class="b"
       d="m 280.56,44.047235 c 0,-3.35 1.28,-4.83 5.67,-4.83 4.39,0 5.62,1.48 5.62,4.83 v 13.21 c 0,1.77 0.44,2.22 2.22,2.22 h 0.64 c 1.77,0 2.22,-0.44 2.22,-2.22 v -13.21 c 0,-6.36 -3.2,-9.56 -10.69,-9.56 -7.14,0 -10.74,3.2 -10.74,9.56 v 13.21 c 0,1.77 0.44,2.22 2.22,2.22 h 0.64 c 1.77,0 2.22,-0.44 2.22,-2.22 v -13.21 z"
       id="path268" />
    <path
       style="opacity:1;stop-opacity:1"
       inkscape:connector-curvature="0"
       class="a"
       d="m 185.58,163.41723 c 0,-0.29 -0.07,-1.1 -0.07,-1.48 v -2.87 c 0,-1.81 -0.56,-2.79 -2,-2.79 a 2.33,2.33 0 0 0 -1.87,1 l 0.49,0.57 a 1.64,1.64 0 0 1 1.29,-0.74 c 0.75,0 1.24,0.54 1.24,1.74 v 0.36 h -0.54 c -1.14,0 -2.73,0.39 -2.73,2.38 0,1.45 0.89,2 1.66,2 a 1.64,1.64 0 0 0 1.67,-1.48 v 0 c 0,0.33 0,1 0,1.29 z m -0.9,-3 c 0,1.06 -0.33,2.46 -1.39,2.46 -0.5,0 -1,-0.4 -1,-1.37 0,-1.31 1,-1.57 1.85,-1.57 h 0.56 v 0.47 z m 9.19,2.55 -0.42,-0.71 a 1.21,1.21 0 0 1 -1,0.56 c -1,0 -1.5,-1.17 -1.5,-2.81 0,-1.64 0.47,-2.87 1.46,-2.87 a 1.17,1.17 0 0 1 1,0.51 l 0.49,-0.67 a 1.92,1.92 0 0 0 -1.5,-0.65 c -1.56,0 -2.39,1.49 -2.39,3.68 0,2.19 0.81,3.68 2.38,3.68 a 1.86,1.86 0 0 0 1.53,-0.71 z m 5.72,-3 c 0,-2.2 -0.91,-3.69 -2.41,-3.69 -1.5,0 -2.41,1.49 -2.41,3.69 0,2.2 0.92,3.66 2.41,3.66 1.49,0 2.41,-1.49 2.41,-3.66 z m -0.95,0 c 0,1.62 -0.46,2.85 -1.46,2.85 -1,0 -1.46,-1.24 -1.46,-2.85 0,-1.61 0.46,-2.88 1.46,-2.88 1,0 1.46,1.25 1.46,2.88 z m 3.79,-2.1 v 0 c 0,-0.45 0,-1 -0.06,-1.35 h -0.89 c 0,0.28 0.06,1.16 0.06,1.74 v 5.17 h 0.91 v -4 c 0,-1.24 0.53,-2.34 1.45,-2.34 0.92,0 1.06,1 1.06,1.86 v 4.46 h 0.92 v -4 c 0,-1.24 0.53,-2.34 1.43,-2.34 0.9,0 1.09,1 1.09,1.86 v 4.46 h 0.93 v -4.47 c 0,-1.28 -0.25,-2.67 -1.73,-2.67 a 2,2 0 0 0 -1.82,1.59 v 0 c -0.14,-0.83 -0.54,-1.59 -1.56,-1.59 a 1.79,1.79 0 0 0 -1.73,1.57 z m 13.85,2.12 c 0,-2.14 -0.79,-3.69 -2.19,-3.69 a 1.67,1.67 0 0 0 -1.66,1.46 v 0 -1.24 h -0.89 v 10.25 h 0.92 v -4.53 0 a 1.71,1.71 0 0 0 1.64,1.41 c 1.43,0 2.19,-1.52 2.19,-3.66 z m -0.95,0 c 0,1.63 -0.45,2.88 -1.45,2.88 -1,0 -1.48,-1.25 -1.48,-2.88 0,-1.63 0.49,-2.87 1.48,-2.87 0.99,0 1.45,1.27 1.45,2.87 z m 6.5,3.47 c 0,-0.29 -0.07,-1.1 -0.07,-1.48 v -2.87 c 0,-1.81 -0.56,-2.79 -2,-2.79 a 2.33,2.33 0 0 0 -1.87,1 l 0.49,0.57 a 1.64,1.64 0 0 1 1.29,-0.74 c 0.75,0 1.24,0.54 1.24,1.74 v 0.36 h -0.54 c -1.14,0 -2.73,0.39 -2.73,2.38 0,1.45 0.89,2 1.66,2 a 1.64,1.64 0 0 0 1.67,-1.48 v 0 c 0,0.33 0,1 0,1.29 z m -0.91,-3 c 0,1.06 -0.34,2.46 -1.39,2.46 -0.5,0 -1,-0.4 -1,-1.37 0,-1.31 1,-1.57 1.85,-1.57 h 0.56 v 0.47 z m 7.44,3 v -4.54 c 0,-1.28 -0.24,-2.67 -1.73,-2.67 a 1.88,1.88 0 0 0 -1.75,1.57 v 0 c 0,-0.45 0,-1 -0.06,-1.35 h -0.89 c 0,0.28 0.06,1.16 0.06,1.74 v 5.17 h 0.92 v -4 c 0,-1.24 0.56,-2.34 1.48,-2.34 0.92,0 1.09,1 1.09,1.86 v 4.46 z m 6.14,-6.91 h -0.93 l -1.32,5.83 v 0 l -1.49,-5.83 h -1 l 2,7.16 -0.31,1.2 c -0.17,0.64 -0.4,1 -0.93,1 a 1.76,1.76 0 0 1 -0.51,-0.08 l -0.13,0.82 a 2.49,2.49 0 0 0 0.71,0.11 c 1,0 1.44,-0.71 1.74,-1.88 l 2.17,-8.37 z m 8.56,3.47 c 0,-2.2 -0.9,-3.69 -2.41,-3.69 -1.51,0 -2.41,1.49 -2.41,3.69 0,2.2 0.92,3.66 2.41,3.66 1.49,0 2.41,-1.49 2.41,-3.66 z m -0.95,0 c 0,1.62 -0.46,2.85 -1.46,2.85 -1,0 -1.46,-1.24 -1.46,-2.85 0,-1.61 0.46,-2.88 1.46,-2.88 1,0 1.46,1.25 1.46,2.88 z m 5.22,-7.21 a 1.92,1.92 0 0 0 -0.57,-0.08 c -1.23,0 -1.77,1 -1.77,2.38 v 1.46 h -0.93 v 0.75 H 245 v 6.15 h 0.91 v -6.15 h 1.17 v -0.75 h -1.17 v -1.46 c 0,-0.81 0.21,-1.6 1,-1.6 a 1.25,1.25 0 0 1 0.4,0.07 l 0.07,-0.77 z"
       id="path270" />
    <path
       style="opacity:1;stop-opacity:1"
       inkscape:connector-curvature="0"
       class="b"
       d="m 270.28,159.32723 h -3.33 v 1.85 a 2.22,2.22 0 0 0 0.08,0.75 0.32,0.32 0 0 0 0.31,0.17 0.38,0.38 0 0 0 0.38,-0.22 2.55,2.55 0 0 0 0.09,-0.86 v -1.1 h 2.46 v 0.63 a 5.61,5.61 0 0 1 -0.1,1.21 2.46,2.46 0 0 1 -0.46,0.91 2.24,2.24 0 0 1 -0.92,0.72 3.56,3.56 0 0 1 -1.4,0.24 4.06,4.06 0 0 1 -1.44,-0.24 2.32,2.32 0 0 1 -1,-0.65 2.35,2.35 0 0 1 -0.48,-0.91 5.72,5.72 0 0 1 -0.13,-1.45 v -2.48 a 4.26,4.26 0 0 1 0.3,-1.76 2,2 0 0 1 1,-1 3.44,3.44 0 0 1 1.57,-0.34 3.5,3.5 0 0 1 1.79,0.41 2.3,2.3 0 0 1 1,1.1 5.28,5.28 0 0 1 0.28,1.92 v 1.13 z m -2.6,-1.39 v -0.62 a 3.06,3.06 0 0 0 -0.07,-0.85 0.26,0.26 0 0 0 -0.27,-0.19 c -0.17,0 -0.28,0.05 -0.32,0.16 a 3.43,3.43 0 0 0 -0.06,0.88 v 0.6 z"
       id="path276" />
    <path
       style="opacity:1;stop-opacity:1"
       inkscape:connector-curvature="0"
       class="b"
       d="m 273.78,154.91723 v 0.78 a 1.92,1.92 0 0 1 0.69,-0.71 1.84,1.84 0 0 1 0.94,-0.23 1.76,1.76 0 0 1 1.09,0.31 1.38,1.38 0 0 1 0.54,0.79 7.65,7.65 0 0 1 0.12,1.6 v 6 h -2.6 v -5.89 a 5.21,5.21 0 0 0 -0.06,-1.07 c 0,-0.13 -0.14,-0.19 -0.31,-0.19 a 0.32,0.32 0 0 0 -0.34,0.22 5.88,5.88 0 0 0 -0.07,1.19 v 5.75 h -2.6 v -8.55 z"
       id="path278" />
    <path
       style="opacity:1;stop-opacity:1"
       inkscape:connector-curvature="0"
       class="c"
       d="m 280.6,153.04723 v 2.33 a 2.38,2.38 0 0 1 0.72,-0.46 2.21,2.21 0 0 1 0.83,-0.15 1.91,1.91 0 0 1 1.16,0.34 1.4,1.4 0 0 1 0.58,0.8 8.79,8.79 0 0 1 0.1,1.65 v 5.87 h -2.6 v -6 a 4,4 0 0 0 -0.07,-1 0.35,0.35 0 0 0 -0.64,0 2.88,2.88 0 0 0 -0.08,0.87 v 6.07 H 278 v -10.32 z"
       id="path280" />
    <path
       style="opacity:1;stop-opacity:1"
       inkscape:connector-curvature="0"
       class="c"
       d="m 290.74,157.91723 v 2.09 a 8.75,8.75 0 0 1 -0.12,1.69 2.43,2.43 0 0 1 -0.49,1 2.23,2.23 0 0 1 -1,0.69 3.93,3.93 0 0 1 -1.36,0.22 5,5 0 0 1 -1.45,-0.19 2,2 0 0 1 -0.92,-0.57 2.29,2.29 0 0 1 -0.4,-0.93 7,7 0 0 1 -0.14,-1.63 v -2.18 a 5.38,5.38 0 0 1 0.26,-1.86 2.11,2.11 0 0 1 0.92,-1.07 3.23,3.23 0 0 1 1.7,-0.4 3.86,3.86 0 0 1 1.49,0.26 2.38,2.38 0 0 1 1,0.68 2.43,2.43 0 0 1 0.47,0.86 5.62,5.62 0 0 1 0.12,1.34 z m -2.6,-0.64 a 3.17,3.17 0 0 0 -0.06,-0.82 0.34,0.34 0 0 0 -0.59,0 2.61,2.61 0 0 0 -0.08,0.82 v 3.85 a 2.5,2.5 0 0 0 0.08,0.79 0.28,0.28 0 0 0 0.29,0.18 0.29,0.29 0 0 0 0.29,-0.17 2.24,2.24 0 0 0 0.07,-0.72 z"
       id="path282" />
    <polygon
       style="opacity:1;stop-opacity:1"
       class="c"
       points="294.26,162.51 291.59,162.51 291.59,152.13 294.26,152.13 "
       id="polygon284"
       transform="translate(0,0.91723512)" />
    <path
       style="opacity:1;stop-opacity:1"
       inkscape:connector-curvature="0"
       class="c"
       d="m 301.07,153.04723 v 10.37 h -2.6 v -0.62 a 2.68,2.68 0 0 1 -0.77,0.58 2,2 0 0 1 -0.85,0.19 1.7,1.7 0 0 1 -1,-0.32 1.42,1.42 0 0 1 -0.56,-0.73 5.2,5.2 0 0 1 -0.12,-1.36 v -4 a 5.35,5.35 0 0 1 0.13,-1.39 1.37,1.37 0 0 1 0.57,-0.72 1.8,1.8 0 0 1 1.06,-0.31 2.08,2.08 0 0 1 1.6,0.69 v -2.41 z m -2.6,4 a 1.75,1.75 0 0 0 -0.07,-0.63 0.31,0.31 0 0 0 -0.3,-0.16 0.3,0.3 0 0 0 -0.3,0.14 1.7,1.7 0 0 0 -0.08,0.65 v 4.18 a 2,2 0 0 0 0.07,0.68 0.28,0.28 0 0 0 0.28,0.16 0.31,0.31 0 0 0 0.32,-0.18 2.89,2.89 0 0 0 0.08,-0.9 z"
       id="path286" />
    <path
       style="opacity:1;stop-opacity:1"
       inkscape:connector-curvature="0"
       class="b"
       d="m 260.28,154.91723 -1,8.5 h -2.79 c -0.15,-1 -0.34,-2.41 -0.55,-4.12 q -0.11,1.14 -0.29,2.28 l -0.29,1.85 h -2.79 l -1.1,-8.5 h 2.21 l 0.58,4.88 q 0.06,-0.48 0.59,-4.88 h 2.13 l 0.52,4.88 c 0.09,-1.43 0.3,-3.06 0.59,-4.88 z"
       id="path288" />
    <path
       style="opacity:1;stop-opacity:1"
       inkscape:connector-curvature="0"
       class="c"
       d="m 308.18,154.91723 v 0.78 a 1.92,1.92 0 0 1 0.69,-0.7 1.8,1.8 0 0 1 0.93,-0.24 1.75,1.75 0 0 1 1.09,0.32 1.4,1.4 0 0 1 0.54,0.79 7.38,7.38 0 0 1 0.12,1.6 v 6 h -2.6 v -5.9 a 5.23,5.23 0 0 0 -0.06,-1.07 c 0,-0.13 -0.14,-0.19 -0.31,-0.19 a 0.31,0.31 0 0 0 -0.34,0.22 5.5,5.5 0 0 0 -0.07,1.18 v 5.76 h -2.6 v -8.55 z"
       id="path290" />
    <path
       style="opacity:1;stop-opacity:1"
       inkscape:connector-curvature="0"
       class="c"
       d="m 318.3,154.91723 v 6.55 a 14.11,14.11 0 0 1 -0.06,1.71 1.75,1.75 0 0 1 -0.43,0.82 2.35,2.35 0 0 1 -1,0.66 5.21,5.21 0 0 1 -1.68,0.23 4,4 0 0 1 -2,-0.42 1.77,1.77 0 0 1 -0.78,-1.65 h 2.51 c 0,0.38 0.14,0.57 0.42,0.57 a 0.42,0.42 0 0 0 0.4,-0.17 1.8,1.8 0 0 0 0.1,-0.73 v -0.57 a 2.47,2.47 0 0 1 -0.71,0.46 2,2 0 0 1 -0.77,0.16 2.18,2.18 0 0 1 -1.15,-0.28 1.44,1.44 0 0 1 -0.62,-0.74 4,4 0 0 1 -0.17,-1.3 v -3.09 a 2.76,2.76 0 0 1 0.44,-1.74 1.63,1.63 0 0 1 1.33,-0.53 2,2 0 0 1 0.89,0.2 2.08,2.08 0 0 1 0.72,0.6 l 0.18,-0.65 z m -2.6,2.25 a 2.43,2.43 0 0 0 -0.07,-0.74 0.29,0.29 0 0 0 -0.3,-0.16 0.32,0.32 0 0 0 -0.32,0.18 1.75,1.75 0 0 0 -0.1,0.72 v 2.86 a 2.44,2.44 0 0 0 0.07,0.74 0.29,0.29 0 0 0 0.3,0.17 0.31,0.31 0 0 0 0.33,-0.21 3,3 0 0 0 0.08,-0.93 v -2.63 z"
       id="path292" />
    <polygon
       style="opacity:1;stop-opacity:1"
       class="b"
       points="260.73,152.18 263.39,152.18 263.39,160.69 260.73,160.69 "
       id="polygon294"
       transform="translate(0,0.91723512)" />
    <polygon
       style="opacity:1;stop-opacity:1"
       class="c"
       points="302.05,152.15 304.71,152.15 304.71,160.66 302.05,160.66 "
       id="polygon296"
       transform="translate(0,0.91723512)" />
    <polygon
       style="opacity:1;stop-opacity:1"
       class="c"
       points="260.73,161.22 263.39,161.22 263.39,162.56 260.73,162.56 "
       id="polygon298"
       transform="translate(0,0.91723512)" />
    <polygon
       style="opacity:1;stop-opacity:1"
       class="b"
       points="302.05,161.18 304.71,161.18 304.71,162.53 302.05,162.53 "
       id="polygon300"
       transform="translate(0,0.91723512)" />
  </g>
  <path
     inkscape:connector-curvature="0"
     style="opacity:1;fill:#4c4a50;stroke-width:4.07768;stop-opacity:1"
     class="b"
     d="m 425.1846,64.055687 c 0,1.5903 0.32621,1.95728 1.95733,2.40583 a 26.260308,26.260308 0 0 0 6.68738,0.85632 c 6.89132,0 9.86799,-2.16117 9.86799,-6.85052 0,-3.66991 -1.67183,-5.38254 -5.21943,-6.89128 l -5.74952,-2.48739 c -1.71261,-0.77476 -2.28354,-1.30487 -2.28354,-2.4874 0,-1.18252 1.14179,-1.99807 4.28158,-1.99807 a 20.75543,20.75543 0 0 1 5.91268,0.8971 c 1.54951,0.44854 1.99805,0 1.99805,-1.67185 v -0.57087 c 0,-1.59031 -0.32621,-1.91653 -2.03882,-2.44662 a 21.367083,21.367083 0 0 0 -5.66803,-0.73398 c -6.4835,0 -9.3379,2.12039 -9.3379,6.64662 a 6.4427463,6.4427463 0 0 0 4.85244,6.52431 l 5.26027,2.32428 c 2.48735,1.14175 3.13978,1.71263 3.13978,2.93593 0,1.22331 -1.22329,2.07962 -4.52624,2.07962 a 27.442838,27.442838 0 0 1 -7.13592,-0.93787 c -1.54956,-0.40776 -1.95732,0 -1.95732,1.71263 v 0.65243 z"
     id="path196" />
  <path
     inkscape:connector-curvature="0"
     style="opacity:1;fill:#4c4a50;stroke-width:4.07768;stop-opacity:1"
     class="b"
     d="m 453.5653,51.577967 c 0,-3.30293 1.14179,-4.81167 4.89322,-4.81167 3.75148,0 4.85244,1.46796 4.85244,4.81167 v 13.08937 c 0,1.75341 0.44855,2.20195 2.20199,2.20195 h 0.48932 c 1.75338,0 2.20198,-0.44854 2.20198,-2.20195 v -13.08937 c 0,-3.30293 1.18251,-4.81167 4.93399,-4.81167 3.75144,0 4.85245,1.46796 4.85245,4.81167 v 13.08937 c 0,1.75341 0.44854,2.20195 2.20193,2.20195 h 0.65242 c 1.75343,0 2.20197,-0.44854 2.20197,-2.20195 v -13.08937 c 0,-6.27964 -3.0175,-9.50101 -9.86799,-9.50101 a 7.625276,7.625276 0 0 0 -7.33986,3.54758 7.625276,7.625276 0 0 0 -7.33986,-3.54758 c -6.60583,0 -9.90877,3.1806 -9.90877,9.50101 v 13.08937 c 0,1.75341 0.44854,2.20195 2.20198,2.20195 h 0.65242 c 1.75339,0 2.20193,-0.44854 2.20193,-2.20195 v -13.08937 z"
     id="path198" />
  <path
     inkscape:connector-curvature="0"
     style="opacity:1;fill:#4c4a50;stroke-width:4.07768;stop-opacity:1"
     class="b"
     d="m 507.43158,59.447897 v -9.50101 c 0,-5.83109 -4.0777,-8.15538 -11.05052,-8.15538 a 31.153533,31.153533 0 0 0 -4.89322,0.40777 c -1.34568,0.24466 -1.75344,0.6932 -1.75344,2.1204 v 0.6932 c 0,1.50875 0.40776,1.79419 1.79421,1.54952 a 26.301085,26.301085 0 0 1 5.13789,-0.44854 c 3.87381,0 5.74952,0.85632 5.74952,3.7107 v 2.40584 h -5.34176 c -6.44278,0 -9.99033,2.16117 -9.99033,7.38061 0,5.21944 3.34367,7.54373 9.90878,7.54373 7.21748,0 10.39809,-2.40584 10.39809,-7.82917 z m -4.97478,-0.24466 c 0,3.05827 -1.87571,3.83303 -5.50486,3.83303 -2.93596,0 -4.81168,-0.77476 -4.81168,-3.38448 0,-2.60972 1.5495,-3.46603 4.934,-3.46603 h 5.38254 z"
     id="path200" />
  <path
     inkscape:connector-curvature="0"
     style="opacity:1;fill:#4c4a50;stroke-width:4.07768;stop-opacity:1"
     class="b"
     d="m 517.25879,50.925537 c 0,-2.97672 0.93787,-4.32236 4.0777,-4.32236 a 4.934002,4.934002 0 0 1 0.97863,0 c 1.71266,0.24466 2.03887,0 2.03887,-1.71262 v -0.69321 c 0,-1.71262 -0.44854,-2.07962 -2.03887,-2.2835 h -0.97863 q -9.25635,0 -9.25635,8.64469 v 13.9457 c 0,1.7534 0.44854,2.20195 2.20198,2.20195 h 0.65242 c 1.75339,0 2.20193,-0.44854 2.20193,-2.20195 v -13.5787 z"
     id="path202" />
  <path
     inkscape:connector-curvature="0"
     style="opacity:1;fill:#4c4a50;stroke-width:4.07768;stop-opacity:1"
     class="b"
     d="m 527.08601,45.461437 c 0,1.38641 0.32621,1.71263 1.71267,1.71263 h 2.52814 v 11.05053 a 7.8699371,7.8699371 0 0 0 8.80781,9.01168 21.570968,21.570968 0 0 0 4.07769,-0.40775 c 1.59028,-0.32621 1.99804,-0.81555 1.99804,-2.44662 v -0.57087 c 0,-1.71263 -0.40776,-2.03885 -1.99804,-1.71263 a 16.31075,16.31075 0 0 1 -4.07769,0.44854 q -3.83304,0 -3.83304,-4.0777 v -11.29518 h 6.85054 c 1.63106,0 2.03883,-0.32621 2.03883,-2.03885 v -0.57088 c 0,-1.71263 -0.44854,-2.03884 -2.03883,-2.03884 h -6.85054 v -4.64856 c 0,-1.42719 -0.32621,-1.75341 -1.75339,-1.75341 h -0.65242 c -1.42723,0 -1.79421,0.32622 -1.9981,1.75341 l -0.57086,4.60779 -2.60969,0.48931 c -1.30491,0.24467 -1.67189,0.65243 -1.67189,1.99807 v 0.48931 z"
     id="path204" />
  <path
     inkscape:connector-curvature="0"
     style="opacity:1;fill:#4c4a50;stroke-width:4.07768;stop-opacity:1"
     class="b"
     d="m 561.25707,57.001287 c 0,6.85051 3.66988,10.27578 11.49905,10.27578 a 16.31075,16.31075 0 0 0 4.0777,-0.48933 c 1.63106,-0.40775 2.03882,-0.81553 2.03882,-2.4466 v -0.5301 c 0,-1.63108 -0.36699,-1.99807 -1.99805,-1.67185 a 21.570968,21.570968 0 0 1 -3.75148,0.44854 c -4.85245,0 -6.68738,-1.42719 -6.68738,-5.66799 v -4.64856 c 0,-4.07768 1.67183,-5.6272 6.36117,-5.6272 a 11.132087,11.132087 0 0 1 3.62915,0.48931 c 1.5495,0.44854 2.03883,0 2.03883,-1.63108 v -0.65243 c 0,-1.59029 -0.32622,-2.03884 -1.95727,-2.44661 a 15.128222,15.128222 0 0 0 -3.83304,-0.48932 c -7.46214,0 -11.29517,3.87381 -11.29517,10.27578 v 4.77089 z"
     id="path206" />
  <path
     inkscape:connector-curvature="0"
     style="opacity:1;fill:#4c4a50;stroke-width:4.07768;stop-opacity:1"
     class="b"
     d="m 583.88825,64.545007 c 0,1.75341 0.44853,2.20195 2.20192,2.20195 h 0.65242 c 1.75344,0 2.20198,-0.44854 2.20198,-2.20195 v -19.85834 c 0,-1.75339 -0.44854,-2.20194 -2.20198,-2.20194 h -0.65242 c -1.75339,0 -2.20192,0.44854 -2.20192,2.20194 z"
     id="path208" />
  <path
     inkscape:connector-curvature="0"
     style="opacity:1;fill:#4c4a50;stroke-width:4.07768;stop-opacity:1"
     class="b"
     d="m 592.77755,45.461437 c 0,1.38641 0.32622,1.71263 1.71266,1.71263 h 2.52814 v 11.05053 a 7.8699371,7.8699371 0 0 0 8.80781,9.01168 21.570968,21.570968 0 0 0 4.07769,-0.40775 c 1.63112,-0.32621 1.9981,-0.81555 1.9981,-2.44662 v -0.57087 c 0,-1.71263 -0.36698,-2.03885 -1.9981,-1.71263 a 16.31075,16.31075 0 0 1 -4.07769,0.44854 q -3.83303,0 -3.83303,-4.0777 v -11.29518 h 6.85055 c 1.63105,0 2.03881,-0.32621 2.03881,-2.03885 v -0.57088 c 0,-1.71263 -0.44854,-2.03884 -2.03881,-2.03884 h -6.80977 v -4.64856 c 0,-1.42719 -0.32622,-1.75341 -1.75339,-1.75341 h -0.65242 c -1.42718,0 -1.79416,0.32622 -1.99804,1.75341 l -0.57093,4.60779 -2.56892,0.48931 c -1.30484,0.24467 -1.67188,0.65243 -1.67188,1.99807 v 0.48931 z"
     id="path210" />
  <path
     inkscape:connector-curvature="0"
     style="opacity:1;fill:#4c4a50;stroke-width:4.07768;stop-opacity:1"
     class="b"
     d="m 619.97574,44.686667 c -0.44854,-1.75339 -0.97864,-2.20194 -2.7728,-2.20194 h -0.65243 c -1.79421,0 -2.16119,0.44854 -1.71265,2.20194 l 4.07769,16.31076 c 1.10096,4.28157 2.24275,6.23885 5.91263,6.23885 a 5.2194401,5.2194401 0 0 0 2.24276,-0.32621 c -1.14174,3.873812 -2.97673,5.871872 -6.32039,6.320422 -1.30491,0 -1.71267,0.57088 -1.34568,1.95729 v 0.65243 c 0.32621,1.50875 0.97864,1.9573 2.20197,1.83496 5.62721,-0.57088 8.8486,-4.07768 10.47965,-10.765102 l 5.26021,-22.06028 c 0.44854,-1.7534 0,-2.20195 -1.71261,-2.20195 h -0.65242 c -1.79421,0 -2.36509,0.44854 -2.73208,2.20195 l -3.66992,15.73987 c -0.44854,1.91652 -1.10097,2.40584 -2.28348,2.40584 -1.18258,0 -2.20198,-0.44854 -2.65052,-2.40584 l -3.87381,-15.73987 z"
     id="path212" />
  <path
     inkscape:connector-curvature="0"
     style="opacity:1;fill:#e30613;stroke-width:4.07768;stop-opacity:1;fill-opacity:1"
     class="a"
     d="m 444.96143,90.234449 c 0,-5.8311 -4.07769,-8.15538 -11.05057,-8.15538 a 30.256442,30.256442 0 0 0 -4.89322,0.40776 c -1.3864,0.24466 -1.75339,0.69321 -1.75339,2.1204 v 0.69321 c 0,1.50874 0.40777,1.79418 1.79416,1.54952 a 26.341862,26.341862 0 0 1 5.13788,-0.44854 c 3.87382,0 5.74953,0.81554 5.74953,3.71069 v 2.40584 h -5.38254 c -6.4835,0.12233 -9.99032,2.28351 -9.99032,7.502951 0,5.21944 3.30294,7.54372 9.90877,7.54372 7.21753,0 10.39815,-2.40584 10.39815,-7.829171 v -9.501 z m -5.05638,9.25635 c 0,3.099041 -1.87572,3.833021 -5.50487,3.833021 -2.9359,0 -4.77089,-0.77476 -4.77089,-3.384471 0,-2.60972 1.54955,-3.50682 4.93399,-3.50682 h 5.34177 v 3.01749 z m 31.43898,-8.60392 a 6.7689614,6.7689614 0 0 0 -1.91649,-4.97478 l 1.99804,-2.16118 c 1.01941,-1.01942 0.97863,-1.63107 0,-2.6505 l -0.44854,-0.44854 c -1.01941,-1.01941 -1.63106,-1.01941 -2.73202,0 l -2.77285,2.40584 a 12.763162,12.763162 0 0 0 -4.64856,-0.77476 c -6.68738,0 -10.64275,3.1806 -10.64275,8.6447 v 0.44854 a 7.1767302,7.1767302 0 0 0 4.07769,7.13595 c -2.60974,0.65243 -3.87381,1.998071 -3.87381,4.077691 a 3.7514726,3.7514726 0 0 0 1.83494,3.42526 5.3009939,5.3009939 0 0 0 -2.60969,4.93399 5.5864322,5.5864322 0 0 0 2.40581,5.01555 17.289396,17.289396 0 0 0 8.88936,1.63108 16.066089,16.066089 0 0 0 8.52238,-1.63108 6.646631,6.646631 0 0 0 2.44658,-5.87186 5.9126472,5.9126472 0 0 0 -2.44658,-5.50487 17.411726,17.411726 0 0 0 -8.76704,-1.54952 21.652522,21.652522 0 0 1 -4.48545,-0.28544 c -0.73398,0 -1.06019,-0.57088 -1.06019,-1.14176 a 1.2640831,1.2640831 0 0 1 1.18252,-1.10097 21.570968,21.570968 0 0 1 4.52623,-0.28544 c 7.0136,0 10.52042,-2.935931 10.52042,-8.807801 v -0.44854 z m -5.01555,0.44854 c 0,2.97671 -1.30485,4.44468 -5.4641,4.44468 -4.15925,0 -5.62719,-1.46797 -5.62719,-4.44468 v -0.44854 c 0,-2.73206 1.50873,-4.28158 5.62719,-4.28158 4.11847,0 5.4641,1.54952 5.4641,4.28158 z m -5.4641,16.066091 c 4.64857,0 6.11652,0.32621 6.11652,2.85437 0,2.52816 -1.63105,3.18059 -6.11652,3.18059 -4.48546,0 -6.27961,-0.6932 -6.27961,-3.09903 a 3.0990426,3.0990426 0 0 1 1.79415,-3.13982 34.497237,34.497237 0 0 0 4.44469,0 z m 35.72056,-15.046681 a 9.1340201,9.1340201 0 0 0 -10.35736,-10.11266 c -7.21748,0 -10.84663,3.50681 -10.84663,10.60199 v 4.07769 c 0,7.380611 3.79225,10.438881 12.0292,10.438881 a 24.01758,24.01758 0 0 0 6.4835,-0.57088 c 1.71261,-0.44854 1.9981,-0.77476 1.9981,-2.40584 v -0.65242 c 0,-1.71263 -0.44854,-2.07962 -1.9981,-1.71263 a 27.035069,27.035069 0 0 1 -6.36118,0.77476 c -4.934,0 -6.97287,-1.42719 -6.97287,-4.974781 v -1.0602 h 13.33405 c 1.79421,0 2.28353,-0.44854 2.48741,-2.24273 0,-0.73398 0,-1.42719 0,-2.16118 z m -16.31078,-0.93786 c 0,-3.22137 1.91656,-4.85244 5.66798,-4.85244 3.75149,0 5.74958,1.63107 5.74958,4.85244 v 1.22331 h -11.29523 v -1.22331 z m 26.01567,0.28544 c 0,-3.34371 1.26407,-4.81168 5.62721,-4.81168 4.36312,0 5.58641,1.46797 5.58641,4.81168 v 13.089371 c 0,1.75341 0.44854,2.20195 2.20198,2.20195 h 0.65242 c 1.75339,0 2.20193,-0.44854 2.20193,-2.20195 V 91.743179 c 0,-6.32042 -3.18056,-9.50101 -10.60197,-9.50101 -7.42141,0 -10.64275,3.18059 -10.64275,9.50101 v 13.089381 c 0,1.75341 0.44854,2.20196 2.20192,2.20196 h 0.65243 c 1.75344,0 2.20198,-0.44854 2.20198,-2.20196 V 91.743179 Z m 21.04085,5.58643 c 0,6.850521 3.66993,10.275771 11.4991,10.275771 a 16.31075,16.31075 0 0 0 4.0777,-0.48931 c 1.63105,-0.40777 2.03882,-0.85632 2.03882,-2.44662 v -0.57087 c 0,-1.5903 -0.40777,-1.99807 -1.99805,-1.67186 a 21.611744,21.611744 0 0 1 -3.75148,0.44854 c -4.85245,0 -6.68744,-1.42719 -6.68744,-5.667981 v -4.81168 c 0,-4.07768 1.67189,-5.6272 6.36123,-5.6272 a 11.172864,11.172864 0 0 1 3.62915,0.48931 c 1.5495,0.44855 2.03882,0 2.03882,-1.59029 v -0.65244 c 0,-1.59029 -0.32621,-2.03884 -1.95726,-2.4466 a 15.087444,15.087444 0 0 0 -3.79226,-0.48933 c -7.46219,0 -11.29523,3.87381 -11.29523,10.27578 v 4.7709 z m 25.64867,-12.23306 c -0.44854,-1.7534 -0.97863,-2.20195 -2.77285,-2.20195 h -0.65242 c -1.79416,0 -2.16114,0.44854 -1.7126,2.20195 l 4.07769,16.310751 c 1.10096,4.32235 2.2427,6.27964 5.91263,6.27964 a 5.3825477,5.3825477 0 0 0 2.2427,-0.32622 c -1.14173,3.8738 -2.97667,5.87186 -6.3204,6.3204 -1.30483,0 -1.7126,0.57088 -1.34562,1.95729 v 0.65243 c 0.32621,1.50875 0.97864,1.9573 2.20193,1.79419 5.62719,-0.57088 8.84859,-4.07768 10.4797,-10.76508 l 5.26021,-22.060301 c 0.44854,-1.7534 0,-2.20195 -1.71266,-2.20195 h -0.65243 c -1.79416,0 -2.36503,0.44855 -2.73201,2.20195 l -3.66994,15.739881 c -0.44854,1.91652 -1.14179,2.40584 -2.28353,2.40584 -1.14174,0 -2.20192,-0.44855 -2.65046,-2.40584 l -3.87381,-15.739881 z"
     id="path214" />
  <path
     transform="matrix(0.7500088,0,0,0.7500088,0,-0.00858869)"
     inkscape:connector-curvature="0"
     id="path916"
     d="m 670.11659,141.61364 c -0.55435,-0.55435 -1.00791,-6.20916 -1.00791,-12.56625 0,-14.39362 2.60195,-17.86289 13.39717,-17.86289 10.8513,0 13.39717,3.44441 13.39717,18.12558 0,9.45683 -0.47284,11.82103 -2.36421,11.82103 -1.85594,0 -2.3642,-2.17475 -2.3642,-10.11598 0,-14.01968 -0.62139,-15.10222 -8.66876,-15.10222 -8.03927,0 -8.66876,1.0899 -8.66876,15.0092 0,9.32756 -1.31257,13.09947 -3.7205,10.69153 z"
     style="fill:#e30613;fill-opacity:1;stroke-width:1.57614" />
  <path
     transform="matrix(0.7500088,0,0,0.7500088,0,-0.00858869)"
     inkscape:connector-curvature="0"
     id="path918"
     d="m 574.34626,142.81221 c -5.19365,-1.10294 -7.84646,-4.23503 -7.87567,-9.29855 -0.0411,-7.13088 4.02342,-9.78141 14.99966,-9.78141 h 5.66268 l -0.28192,-3.01901 c -0.47653,-5.10302 -2.00725,-5.87726 -10.84276,-5.48431 l -5.81717,0.25872 -0.27678,-1.10279 c -0.3902,-1.55466 0.13237,-3.26567 1.16639,-3.81907 1.47724,-0.79059 8.6594,-1.08952 12.03859,-0.50106 5.03805,0.87734 7.65203,2.61757 9.08564,6.04867 0.55039,1.31726 0.70267,3.5377 0.70068,10.21679 -0.001,4.69357 -0.21371,9.29413 -0.47181,10.22348 -1.15858,4.17164 -4.80664,6.19578 -11.69692,6.4901 -2.42698,0.10366 -5.30275,-5.5e-4 -6.39061,-0.23156 z m 9.93823,-5.68119 c 1.86383,-0.96383 2.26268,-1.9673 2.26268,-5.69272 v -3.25822 l -5.41907,0.16145 c -4.61992,0.13764 -5.60526,0.30047 -6.68168,1.10421 -2.4631,1.83915 -2.3409,6.29085 0.21074,7.67657 1.6706,0.90726 7.87886,0.91287 9.62733,0.009 z"
     style="fill:#e30613;fill-opacity:1;stroke-width:0.454355" />
  <path
     transform="matrix(0.7500088,0,0,0.7500088,0,-0.00858869)"
     inkscape:connector-curvature="0"
     id="path920"
     d="m 605.92318,155.54709 c -4.23438,-1.35275 -6.19971,-3.73477 -6.19971,-7.51415 0,-2.32095 0.47439,-3.49638 2.12734,-5.27106 l 1.1076,-1.18918 -1.16312,-1.71395 c -0.63971,-0.94267 -1.16235,-2.24768 -1.16142,-2.90002 0.003,-1.84154 1.56315,-3.98923 3.37448,-4.64422 0.89195,-0.32253 1.62173,-0.69869 1.62172,-0.83591 -1e-5,-0.13722 -0.71611,-0.82087 -1.59134,-1.51921 -2.45228,-1.95668 -3.40655,-4.24378 -3.40655,-8.16443 0,-5.78931 2.63366,-9.43422 7.97923,-11.043 2.55654,-0.76941 8.55801,-0.85697 10.57378,-0.15427 1.33498,0.46538 1.57437,0.36689 3.86522,-1.59024 1.34315,-1.14749 2.71555,-2.08634 3.04978,-2.08634 0.80158,0 3.15636,2.27428 3.15636,3.04846 0,0.33367 -0.82533,1.50206 -1.83407,2.59641 l -1.83407,1.98973 1.129,1.66369 c 2.17866,3.21043 1.95636,9.09008 -0.47641,12.60056 -2.05756,2.96906 -5.03984,4.06338 -12.28169,4.50663 -6.19635,0.37927 -7.42052,0.74532 -7.42052,2.21889 0,1.52832 1.16076,1.85047 7.33818,2.03656 11.14193,0.33566 14.49938,2.24295 14.8493,8.43557 0.21647,3.83105 -0.44522,5.90459 -2.44437,7.65986 -2.37199,2.08264 -5.38447,2.77217 -11.98795,2.74391 -4.27425,-0.0183 -6.37965,-0.23819 -8.37077,-0.87429 z m 13.8921,-4.57373 c 2.00622,-0.55718 3.0803,-1.91449 3.0803,-3.89259 0,-3.27938 -2.25404,-4.16492 -10.77324,-4.23244 -5.09561,-0.0404 -6.0379,0.59499 -6.0379,4.07128 0,2.33773 0.783,3.39134 3.01807,4.06113 1.84758,0.55367 8.70966,0.54894 10.71277,-0.007 z m -0.75078,-23.8171 c 2.09574,-0.87565 3.09289,-3.17905 2.81691,-6.507 -0.26076,-3.14442 -1.50348,-4.4527 -4.82854,-5.08329 -3.98372,-0.75549 -8.26943,0.28932 -9.54143,2.32612 -0.87762,1.4053 -0.78315,6.04979 0.1521,7.47716 0.41869,0.63901 1.41032,1.44416 2.20362,1.78923 1.91661,0.83368 7.1998,0.83241 9.19734,-0.002 z"
     style="fill:#e30613;fill-opacity:1;stroke-width:0.454355" />
  <path
     transform="matrix(0.7500088,0,0,0.7500088,0,-0.00858869)"
     inkscape:connector-curvature="0"
     id="path922"
     d="m 642.98411,142.10877 c -4.14595,-1.11602 -6.77777,-3.41709 -8.05785,-7.04521 -0.90997,-2.57914 -0.92916,-13.96661 -0.0286,-16.95903 1.4739,-4.89741 4.96842,-7.30793 11.68071,-8.05733 4.67487,-0.52194 7.6597,0.0792 10.38491,2.09145 1.91127,1.41126 3.9248,4.30965 4.5463,6.54421 0.59934,2.15484 0.071,8.55446 -0.77615,9.40162 -0.51805,0.51805 -2.58126,0.64567 -10.43811,0.64567 h -9.79245 l 0.20665,2.49191 c 0.33705,4.06442 2.34757,5.56737 7.97649,5.96276 2.23753,0.15717 4.91151,-0.006 7.35592,-0.44827 4.45466,-0.80638 5.01945,-0.57992 5.01945,2.01259 0,2.19512 -0.77805,2.95655 -3.65059,3.5726 -3.2022,0.68675 -11.54165,0.56364 -14.42671,-0.21297 z m 12.62504,-20.44369 c 0,-3.78231 -1.69573,-5.64396 -5.7551,-6.31821 -3.11602,-0.51755 -6.0023,0.14359 -7.79366,1.78525 -1.37141,1.2568 -1.61372,1.79929 -1.7984,4.02631 l -0.21344,2.57382 h 7.7803 7.7803 z"
     style="fill:#e30613;fill-opacity:1;stroke-width:0.454355" />
  <path
     transform="matrix(0.7500088,0,0,0.7500088,0,-0.00858869)"
     inkscape:connector-curvature="0"
     id="path924"
     d="m 713.23879,142.67025 c -4.07147,-0.92337 -6.71353,-2.8199 -8.32515,-5.97598 -1.34754,-2.63892 -1.36974,-2.79529 -1.35274,-9.52632 0.021,-8.29107 0.66909,-10.73415 3.63446,-13.69952 2.41829,-2.41828 6.5618,-3.83817 11.04907,-3.78628 4.18964,0.0485 6.5045,0.81819 7.27222,2.41814 0.84157,1.75385 0.16554,4.20078 -1.10106,3.98538 -0.48419,-0.0823 -2.82272,-0.2474 -5.19673,-0.36679 -4.84167,-0.24349 -6.63396,0.33632 -8.37327,2.70876 -0.85102,1.16081 -0.94101,1.9231 -0.94101,7.97172 0,7.45109 0.30073,8.42303 3.07118,9.92595 1.16394,0.63141 2.42417,0.78082 6.01593,0.71322 2.49895,-0.047 5.04593,-0.14664 5.65994,-0.22134 2.45477,-0.29865 2.37259,4.26645 -0.0981,5.45063 -1.79109,0.85844 -8.28549,1.08943 -11.31472,0.40243 z"
     style="fill:#e30613;fill-opacity:1;stroke-width:0.454355" />
  <path
     transform="matrix(0.7500088,0,0,0.7500088,0,-0.00858869)"
     inkscape:connector-curvature="0"
     id="path926"
     d="m 737.92757,156.95876 c -0.65161,-0.41253 -1.60688,-3.96973 -1.22988,-4.57974 0.12704,-0.20556 0.99046,-0.51622 1.9187,-0.69036 2.41867,-0.45374 4.91947,-1.83821 5.95612,-3.29736 0.84437,-1.1885 2.36202,-4.44203 2.36202,-5.06368 0,-0.15691 -1.4178,-0.28528 -3.15065,-0.28528 -2.84216,0 -3.28252,-0.12634 -4.49741,-1.29027 -0.74071,-0.70965 -1.66555,-2.14087 -2.05519,-3.18049 -0.90694,-2.41983 -6.65354,-25.42075 -6.65354,-26.63096 0,-2.06145 5.37545,-1.67347 5.99557,0.43275 0.18394,0.62474 1.51167,6.1246 2.95051,12.22193 1.59061,6.74049 2.94536,11.50467 3.45612,12.154 1.17762,1.4971 4.09981,1.50778 5.07559,0.0186 0.37817,-0.57716 1.82542,-5.94423 3.2161,-11.92682 3.02086,-12.99549 2.82503,-12.29521 3.67633,-13.14651 0.91762,-0.91762 4.96867,-0.93694 5.31847,-0.0254 0.28904,0.75321 -7.06919,32.01651 -8.29448,35.2412 -1.05669,2.78098 -3.32522,6.04242 -5.19467,7.46832 -2.40763,1.83639 -7.6228,3.35684 -8.84971,2.58008 z"
     style="fill:#e30613;fill-opacity:1;stroke-width:0.454355" />
</svg>
