<?xml version="1.0" encoding="iso-8859-1"?>
<!-- Generator: Adobe Illustrator 22.1.0, SVG Export Plug-In . SVG Version: 6.00 Build 0)  -->
<svg version="1.1" id="Ebene_1" xmlns="http://www.w3.org/2000/svg" xmlns:xlink="http://www.w3.org/1999/xlink" x="0px" y="0px"
	 viewBox="0 0 160 55" style="enable-background:new 0 0 160 55;" xml:space="preserve">
<g>
	<polygon style="fill:#E52236;" points="13.431,21.217 18.573,21.217 21.947,32.898 25.344,21.217 29.812,21.217 24.367,37.854
		18.945,37.854 13.431,21.217 	"/>
	<polygon style="fill:#E52236;" points="40.027,21.217 44.844,21.217 44.844,37.854 40.027,37.854 40.027,21.217 	"/>
	<polygon style="fill:#E52236;" points="56.362,21.217 67.857,21.217 67.857,24.894 61.108,24.894 61.108,27.756 66.484,27.756
		66.484,31.153 61.108,31.153 61.108,34.178 68.229,34.178 68.229,37.854 56.362,37.854 56.362,21.217 	"/>
	<polygon style="fill:#E52236;" points="78.816,21.217 84.192,21.217 89.52,30.595 89.52,21.217 93.685,21.217 93.685,37.854
		89.078,37.854 83.005,27.407 83.005,37.854 78.816,37.854 78.816,21.217 	"/>
	<polygon style="fill:#E52236;" points="105.134,21.217 110.509,21.217 115.837,30.595 115.837,21.217 120.003,21.217
		120.003,37.854 115.395,37.854 109.322,27.407 109.322,37.854 105.134,37.854 105.134,21.217 	"/>
	<path style="fill:#E52236;" d="M136.384,31.478h3.653l-1.815-6.399L136.384,31.478L136.384,31.478z M135.453,21.217h6.166
		l5.282,16.637h-5.049l-0.884-3.095h-5.515l-0.884,3.095h-4.444L135.453,21.217L135.453,21.217z"/>
	<path style="fill:#E52236;" d="M0,50.684v-0.096c0-2.528,1.693-4.352,4.006-4.352c1.777,0,3.279,0.942,3.458,2.79H6.438
		c-0.215-1.3-0.966-1.967-2.42-1.967c-1.765,0-2.945,1.371-2.945,3.517v0.095c0,2.17,1.097,3.481,2.933,3.481
		c1.395,0,2.361-0.704,2.575-2.087h0.966C7.249,54.035,5.89,55,3.982,55C1.514,55,0,53.307,0,50.684L0,50.684z"/>
	<path style="fill:#E52236;" d="M18.119,50.648v-0.095c0-1.908-1.121-3.458-3.088-3.458c-1.979,0-3.124,1.454-3.124,3.481v0.095
		c0,2.063,1.371,3.469,3.148,3.469C16.95,54.141,18.119,52.711,18.119,50.648L18.119,50.648z M10.834,50.684v-0.096
		c0-2.42,1.693-4.328,4.197-4.328c2.504,0,4.161,1.908,4.161,4.304v0.096c0,2.408-1.657,4.34-4.137,4.34
		C12.539,55,10.834,53.069,10.834,50.684L10.834,50.684z"/>
	<polygon style="fill:#E52236;" points="23.051,46.368 24.398,46.368 28.547,53.414 28.547,46.368 29.537,46.368 29.537,54.893
		28.345,54.893 24.041,47.584 24.041,54.893 23.051,54.893 23.051,46.368 	"/>
	<polygon style="fill:#E52236;" points="33.098,46.368 34.124,46.368 36.663,53.891 39.203,46.368 40.18,46.368 37.235,54.893
		35.995,54.893 33.098,46.368 	"/>
	<polygon style="fill:#E52236;" points="43.742,46.368 48.714,46.368 48.714,47.214 44.779,47.214 44.779,50.112 47.951,50.112
		47.951,50.959 44.779,50.959 44.779,54.046 48.928,54.046 48.928,54.893 43.742,54.893 43.742,46.368 	"/>
	<polygon style="fill:#E52236;" points="52.622,46.368 53.969,46.368 58.118,53.414 58.118,46.368 59.107,46.368 59.107,54.893
		57.915,54.893 53.611,47.584 53.611,54.893 52.622,54.893 52.622,46.368 	"/>
	<polygon style="fill:#E52236;" points="65.137,47.214 62.657,47.214 62.657,46.368 68.654,46.368 68.654,47.214 66.174,47.214
		66.174,54.893 65.137,54.893 65.137,47.214 	"/>
	<polygon style="fill:#E52236;" points="72.264,46.368 73.301,46.368 73.301,54.893 72.264,54.893 72.264,46.368 	"/>
	<path style="fill:#E52236;" d="M84.507,50.648v-0.095c0-1.908-1.121-3.458-3.088-3.458c-1.979,0-3.124,1.454-3.124,3.481v0.095
		c0,2.063,1.371,3.469,3.148,3.469C83.338,54.141,84.507,52.711,84.507,50.648L84.507,50.648z M77.222,50.684v-0.096
		c0-2.42,1.693-4.328,4.197-4.328c2.504,0,4.161,1.908,4.161,4.304v0.096c0,2.408-1.657,4.34-4.137,4.34
		C78.927,55,77.222,53.069,77.222,50.684L77.222,50.684z"/>
	<polygon style="fill:#E52236;" points="89.439,46.368 90.786,46.368 94.935,53.414 94.935,46.368 95.925,46.368 95.925,54.893
		94.732,54.893 90.428,47.584 90.428,54.893 89.439,54.893 89.439,46.368 	"/>
	<path style="fill:#E52236;" d="M108.331,54.082c1.24,0,1.812-0.548,1.812-1.586v-0.048c0-1.049-0.584-1.55-1.955-1.55h-1.741v3.184
		H108.331L108.331,54.082z M107.997,50.088c1.252,0,1.729-0.453,1.729-1.502v-0.048c0-0.966-0.56-1.359-1.753-1.359h-1.526v2.909
		H107.997L107.997,50.088z M105.434,46.368h2.563c1.586,0,2.742,0.524,2.742,2.206v0.048c0,0.775-0.31,1.467-1.288,1.8
		c1.24,0.298,1.705,0.93,1.705,2.039v0.048c0,1.609-1.097,2.384-2.802,2.384h-2.921V46.368L105.434,46.368z"/>
	<path style="fill:#E52236;" d="M114.909,51.781v-5.413h1.038v5.293c0,1.788,0.632,2.48,2.05,2.48c1.359,0,2.17-0.548,2.17-2.635
		v-5.139h1.037v5.282c0,2.074-1.037,3.35-3.231,3.35C116.018,55,114.909,53.855,114.909,51.781L114.909,51.781z"/>
	<path style="fill:#E52236;" d="M128.045,50.362c1.216,0,1.872-0.524,1.872-1.574V48.74c0-1.156-0.715-1.538-1.872-1.538h-1.597
		v3.159H128.045L128.045,50.362z M125.41,46.368h2.563c1.633,0,2.981,0.668,2.981,2.372v0.048c0,1.407-0.942,2.099-2.11,2.325
		l2.611,3.78h-1.157l-2.539-3.708h-1.311v3.708h-1.037V46.368L125.41,46.368z"/>
	<polygon style="fill:#E52236;" points="135.028,46.368 140,46.368 140,47.214 136.066,47.214 136.066,50.112 139.237,50.112
		139.237,50.959 136.066,50.959 136.066,54.046 140.214,54.046 140.214,54.893 135.028,54.893 135.028,46.368 	"/>
	<path style="fill:#E52236;" d="M145.351,51.614h2.957l-1.479-4.387L145.351,51.614L145.351,51.614z M146.197,46.368h1.359
		l2.885,8.525h-1.025l-0.834-2.456h-3.517l-0.823,2.456h-0.977L146.197,46.368L146.197,46.368z"/>
	<path style="fill:#E52236;" d="M153.705,51.781v-5.413h1.038v5.293c0,1.788,0.632,2.48,2.051,2.48c1.359,0,2.17-0.548,2.17-2.635
		v-5.139H160v5.282c0,2.074-1.037,3.35-3.231,3.35C154.814,55,153.705,53.855,153.705,51.781L153.705,51.781z"/>
</g>
</svg>
